<svg xmlns="http://www.w3.org/2000/svg" id="Layer_1" data-name="Layer 1" viewBox="0 0 168.04 167.76" width="168.04" height="167.76"><metadata><rdf:RDF xmlns:rdf="http://www.w3.org/1999/02/22-rdf-syntax-ns#" xmlns:dc="http://purl.org/dc/elements/1.1/"><rdf:Description><dc:creator>RealFaviconGenerator</dc:creator><dc:source>https://realfavicongenerator.net</dc:source></rdf:Description></rdf:RDF></metadata><defs>
    <style>
      .cls-1 {
        fill: #fcb713;
      }

      .cls-2 {
        fill: #ef4c23;
      }
    </style>
  </defs><path class="cls-1" d="M40.04,84.56h.19c4.43-.02,13.2-.56,14.34-4.17.53-2.81-3.33-4.56-5.72-5.18-14.42-4.05-30.3-3.48-45.06-.5-1.68.38-4.38,1.48-3.68,3.42.74,2.06,5.35,3.65,8.19,4.85,10.04,4.53,21.19,2.04,31.74,1.58ZM47.09,93.32c-19.73.42-56.5,37.22-21.76,20.36l.15-.06c5.99-2.37,13.74-6.05,19.14-10.29,3.59-2.55,8.8-8.88,2.47-10.01ZM115.38,75.24l.15.02c4.2.41,6.78-.91,12.17-2.52,4.27-1.44,9.17-3.32,13.78-5.29,3.14-1.32,22.76-9.84,14.96-10.63-8.65-1.74-61.27,14.37-41.06,18.41ZM56.77,108.22c-14.3,7.72-26.18,48.54-13.02,36.6,3.27-3.13,6.31-6.7,8.38-10.61l.09-.16c1.29-2.54,3.57-4.66,4.64-7.13,1.26-3.21,2.46-6.35,3.72-10.08,2.02-5.63,2.37-11.73-3.82-8.63ZM117.43,56.62l.16-.1c5.48-3.41,9.9-9,14.65-13.15,4.97-4.99,17.45-18.91,6.27-16.88-35.55,5.45-53.32,53.81-21.08,30.13ZM40.47,56.88c8.05,6.15,26.29,9.03,12.14-5.21l-.1-.1c-3.7-3.68-25.72-16.26-28.65-13-.51,1.53,1.39,3.37,2.37,4.63,4.32,4.93,8.93,9.76,14.24,13.68ZM83.52,114.63c-1.88-5.08-6.07-6.58-9.56-1.96-6.33,11.63-9.71,41.1-4.75,52.6,2.02,3.99,8.2,2.67,10.55-.4.97-1.27,1.34-2.84,1.69-4.37.61-2.55,1.34-5.62,1.04-8.45v-.2c-.31-2.91.42-5.75.97-8.59.51-5.06,1.55-10.24,1.31-15.39,0-4.51.41-8.91-1.25-13.23ZM138.57,128c-2.87-4.74-6.55-9.05-10.79-12.61-1.9-1.61-3.47-3.57-5.2-5.34-2.3-2.06-12.66-9.15-15.26-6.45-2.24,2.9,2.49,10.69,5.05,13.61,3.14,4.48,37.99,29.92,26.31,10.96l-.11-.17ZM168.01,95.28c-1.6-3.55-7.11-3.13-10.38-3.94-9.88-2.03-19.68-4.01-29.62-5.41-15.52-3.06-27.05,1.41.04,9.32,6.39,2.09,40.11,9.69,39.99.14l-.03-.12ZM96.09,35.54c.17-2.72.16-5.22.16-7.86.34-2.76.55-5.52.01-8.48-.33-2.18.17-4.41-.04-6.6-.37-2.84-.96-5.66-1.17-8.54-.29-2.46-1.85-4.41-4.26-4.02-9.53,2.47-8.28,31.94-9.89,43.35,1.09,26.72,14.8,8.47,15.18-7.64v-.21ZM110.11,135.49c-.6-2.09-.97-4.34-2-6.28-1.1-1.99-2.39-3.1-3.2-4.98-1.04-2.6-2.21-5.58-4.22-8.09-3.29-4.67-8.45-4.89-9.17.96-.68,23.21,32.66,59.79,18.64,18.57l-.05-.19ZM71.04,43.35l-.06-.21c-.94-3.26-2.25-6.21-3.31-9.38-1.08-3.51-2.15-5.7-4.42-9.12-2.49-3.99-5.84-9.27-7.86-8.77-1.68.61-1.31,3.53-1.23,5.12.93,9.98,2.51,20.61,8.36,28.88,6.56,8.54,11.01,1.49,8.53-6.51Z"></path><path class="cls-2" d="M96.27,96.97c-23.47,21.55-50.74-19.48-21.37-31.61,3.95-1.68,8.91-3.31,12.87-2.81,9.53,1.07,15.18,10.5,15.11,19.62,0,5.33-2.21,10.91-6.44,14.65l-.17.15Z"></path></svg>