<?xml version="1.0" encoding="UTF-8"?>
<svg id="Layer_1" data-name="Layer 1" xmlns="http://www.w3.org/2000/svg" viewBox="0 0 725.62 323.61">
  <defs>
    <style>
      .cls-1 {
        fill: #fffbec;
      }
    </style>
  </defs>
  <path class="cls-1" d="M402.08,81.04c-3.14-5.43-8.64-8.94-14.67-9.86-6.31-.97-13.65-1.05-20.12.04-51.23,10.13-58.65,143.37-15.19,166.98,8.66,1.66,25.29-5.41,30.68-13.29,1.23-1.87,1.95-3.82,3.03-5.65,1.14-2.11,3-3.61,4.33-5.68,2.73-4.04,3.9-9.87,5.56-14.03,1-2.06,1.52-4.2,1.69-6.5.21-2.07,1.42-3.95,1.98-5.83.05-.16.08-.31.1-.45.25-1.07-.86-1.23-1.14-1.65-.05-.07-.07-.15-.05-.25.16-.45.39-.78.78-1.36,3.58-3.79,3.62-9.8,3.65-14.8-.41-4.36-.14-9.36-2.61-13.17-1.2-1.71-3.09-2.76-5-3.55-7.36-3.17-16.31-5.98-23.6-1.27-4.77,3.16-1.64,8.17,5.24,10.01,4.72,1.38,10.42.3,9.69,6.99v.21c-2.24,24.22-16.55,60.17-25.35,50.28-1.52-1.63-2.88-4.54-4.02-9-1.89-7.78-2.5-14.21-2.93-22.53-.4-4.69-1.78-8.91-1.13-13.48.03-2.2-1.19-4.1-1.98-6.11-.51-1.23-.2-2.45,1.08-2.79,1.72-.77,1.16-3.24,1.5-4.82.21-2.31.85-4.22.93-6.51-.03-2.21-.62-4.41-.86-6.59-.79-3.91,2.67-6.11,3.22-10.15.18-3.01.59-6.26,1.19-9.17.34-3.42.34-6.23,1.11-9.54.31-1.47,1.59-1.28,2.07-2.4.4-.88.55-1.98.81-2.99.8-3.84,3.42-6.88,5.36-10.31,6.04-12.14,10.37-19.86,23.59-8.36,3.31,2.45,6.23,7.97,9.55,9.26,3.49,1.31,8.21-1.2,7.64-5.28-1.01-5.83-2.76-11.48-6.11-16.42ZM615.4,246.64c-.82-2.19-2.24-3.99-3.06-6.11-.89-2.08-1.01-4.35-1.79-6.5-1.48-3.89-3.81-7.49-4.89-11.37-.58-1.92-.9-3.98-1.73-5.81-1.28-2.55-3.06-4.62-3.91-7.24-1.62-5.83-6.41-10.17-8.31-15.93-.91-2.4-.76-4.62-1.65-6.91-2.92-6.47-6.05-13.02-9.77-19.07-1.1-1.75-1-3.02-1.65-5.2-.84-2.6-2.83-5.97-4.13-8.79-.93-1.78-2.63-3.09-3.34-4.78-.74-1.67-.58-3.89-1.72-5.82-2.58-3.21-3.07-7.22-4.15-11.06-3.55-8.28-1.86-9.82,6.19-11.92,2.68-.81,5.48-1.74,7.76-3.37,3.16-2.71,6.24-5.17,9.46-7.75,1.58-1.45,2.76-3.31,3.8-5.19,1.31-2.24,2.89-3.57,4.2-5.49,1.87-3.16,1.77-7.64,4.39-10.15,2.02-2.53,1.54-5.42,1.76-8.9.18-1.92-.41-3.87-.79-5.65-.51-2.16.06-4.3.22-6.45.12-2.46-1.93-4.74-3.86-7.06-3.56-3.82-8.24-6.37-12.94-8.46-14.38-3.78-34.83-6.22-38.64,12.03-1.32,5.22-.77,11.21-1.11,16.66-2.78,24.68-3.22,49.5-3.67,74.29-.48,19.41-2.28,108.88,10.51,118.59,8.01,5.94,8.36-21.73,9.2-26.79.28-2.93.08-7.02-.03-10.56-.52-3.22-.88-6.17.39-9.22,1.63-5.69-.08-12.46,1.09-18.44.17-1.87-.54-3.01-.77-4-.4-1.4.4-2.78.85-4.14,1.31-3.38-.42-7.51-.37-11.24.15-2.01.07-4.85,1.09-6.51,11.51,25.26,21.14,53.58,38.44,76.13l.12.15c5.43,6.87,20.26,21.22,17.85,7.57-1.41-6.59-2.42-13.29-5.03-19.54ZM562.71,111.57c-2.72.21-2.95-3.73-3.35-6.06l-.03-.19c-1.28-4.88-.43-9.8-.43-14.81-.05-3.01,1.07-5.98.27-8.96-.23-.99-.56-1.97-.8-2.96-1.17-3.78.54-8.14.61-12.03-.3-10.21,11.93-5.72,16.81-1.37,5.7,4.73,10.09,10.54,8.56,17.38-1.37,5.94-3.44,12.06-7.23,16.83-1.46,1.85-2.99,3.49-4.64,5.22-2.96,2.87-6.05,6.36-9.77,6.96ZM308.72,200.3c-.56-2.85-1.17-5.54-.99-8.45,0-.93-.14-1.85-.25-2.78-.42-2.74.74-5.37.47-8.15-.19-2.53-1.34-5.22-2.15-7.57-.83-2.32-.25-4.33.04-6.63.31-3.69-1.4-7.15-2.24-10.76-.39-1.92-1.13-4.08-.76-5.99.47-1.95,1.21-3.4.63-5.67-.8-2.6-1.06-5.32-1.54-7.99-.48-2.5-1.7-5.01-1.97-7.43-.29-3.89,1.13-8.01.18-12.04-1.84-10.09-2.67-20.41-4.9-30.5-1.65-4.6.08-9.55-2.51-13.94-2.45-4.17-2.86-9.1-4.86-13.13-2.11-3.33-4.47-7.29-8.23-8.34-3.59-.78-7.4-.48-10.55-.45-19.66.79-29.38,61.86-34.54,99.5-1.29,9.21-2.09,16.23-3.31,23.89.04,6.47-8.98,99.55,8.68,92.98,9.62-7.22,7.24-22.53,8.88-33.1,1.62-5.79,5.86-10.49,2.91-16.66-.39-1.35-.17-2.76.18-4.38.73-3.9,1.07-7.27,5.18-8.63,4.96-2.03,10.36-2.83,15.68-3.88,11.76-2.11,9.47.17,10.47,13.31.49,7.54,1.81,13.35,3.56,21.09l.04.21c3.64,24.72,16.26,57.03,21.83,25.84,1.02-5.85,1.37-10.98,2.21-16.71.24-4.23-.75-8.2.25-12.34,1.26-7.65-.92-15.57-2.11-23.31-.48-2.68-.02-5.35-.29-7.98ZM280.3,188.14c-1.09,2.34-4.24,1.57-6.4,1.88-3.76.21-7.85.62-11.62,1.21-2.42.4-5.27.33-6.07-2.44-.75-3.61-1.07-7.95.29-11.44,2.13-3.95,3.01-8.65,2.92-13.23v-.19c-.55-7.47,3.31-14.59,2.23-22.09-.49-4.14,2.59-8.15,2.44-11.98-.27-4.34,1.16-8.21,2.09-12.34,1.43-5.11,1.12-11.04,1.5-16.42,1.09-11.33,3.48,5.51,4.13,11.05,1.39,10.75,2.37,21.29,3.58,32.1.39,4.39,1.29,7.64,1.03,11.7-.35,7.41,6.13,26.92,3.9,32.18ZM529.65,140.12c-.75-3.89-.71-7.76-.84-11.71-.31-4-1.96-6.97-2.55-10.66-.61-3.61-2.91-6.72-4.32-10.07-1.62-3.97-3.45-8.19-6.43-11.29-.93-1.14-2.47-1.92-3.34-2.98-1.45-2.02-2.14-4.81-4.92-6.18-5.34-3.07-11.35-5.39-17.16-7.38-1.95-.57-4.03-.08-5.42-1.49-.56-.68-.79-1.52-1.34-2.24-1.03-1.41-3.14-1.5-4.8-1.6-51.32-.49-68.86,94.98-55.72,135.95,10.83,39.01,44.45,37.44,71.78,13.8,5.89-2.51,8.72-8.76,12.68-13.13l.12-.14c1.37-1.51,2.87-2.9,3.96-4.63,2.04-3.48,4.68-7.23,6.76-10.88,1.14-3.17,2.17-5.66,3.36-8.68.69-2.08.3-4.61.99-6.74.7-2.16,2.08-4.1,3.1-6.12,1.81-3.36,2.26-7.5,2.59-11.39.41-2.7,1.87-5.17,1.88-7.95.09-2.26-.95-4.68-.97-6.9-.07-2.61.87-5.04.58-7.6ZM470.97,219.54c-6.62,3-9.78,2.14-14.32-3.4-1.33-1.4-2.91-2.74-3.94-4.44-.31-.47-.6-.97-.9-1.44-1.29-2.24-2.49-2.67-3.79-4.03l-.07-.09c-1.01-1.54-.69-3.78-1.12-5.56-.61-2.77-1.81-4.94-2.07-7.65-.07-3.66-.56-7.67-.57-11.26.09-3.02,1.27-5.71,1.67-8.88.42-7.22,1.38-14.13,2.42-21.33.34-3.7,1.55-6.88,2.35-10.57.48-2.7.49-5.45,1.31-8.12,1.69-5.09,4.18-9.72,5.31-15.01,2.21-5.86,5.12-11.41,7.99-17.14,4.89-9.99,17.1,2.48,22.41,6.48,12.28,11.07,14.93,23.83,14.65,39.68.58,18.83-9.76,60.67-31.33,72.76ZM682.18,210.37c.6-3.93,1.24-7.93,1.08-11.9-.68-6.84-.82-13.94-1.12-20.74-.27-3.7-1.87-7.37-.86-11.13,1.24-4.29-.52-8.7-.56-12.88,0-.52.05-1.04.11-1.56.72-3.63.08-7.38-.79-10.96-.71-3.26-.41-6.69-.7-10.05-.68-5.6-.13-11.08-.98-16.65-.72-3.25.28-5.58-.54-8.7-.74-2.52.1-5.07-.13-7.2-.13-1.08-.33-1.95-.63-2.95-1.16-3.77-1.6-7.88-2.46-11.8-.26-1.97.43-4.14-.09-5.84-.47-1.6-2.49-2.76-2.85-4.91-.26-1.36-.15-2.86-.27-4.24-.19-2.73-1.18-5.11-1.47-7.91-.46-6.28-6.61-9.84-12.4-10.7-6.6-1.03-13.99,1.51-17.08,7.69-20.32,39.34-20.67,87.45-22.16,131.14-.03,8.54.35,21.15,2.39,29.2,1.38,5.48,3.86,10.14,8.36,6.34,1.32-1.32,1.79-3.51,2.16-5.36.63-4.66,2.07-9.39,3.09-14.05.69-4.09,1.38-8.85,1.59-13,.84-5.47,2.58-11.01,3.7-16.4,1.25-7.98,9.95-5.09,15.78-5.74,2.81-.21,5.53-1.32,7.21.19,1.45,1.41,1.32,3.69,1.53,5.49,1.59,20.01,4.95,98.91,16.34,54.6l.06-.17c1.96-4.87,2.38-10.7,1.14-15.89-.33-1.72.17-2.37.55-3.93ZM662.62,157.82c-1.08,1.18-2.87.83-4.39.82-3.96-.13-8.09-.68-11.85-.95-2.35-.06-4.66-.86-3.81-3.85l.04-.18c.92-2.92.76-6,.88-9.03.23-3.32,1.76-6.53,1.94-9.85.11-1.36.12-2.75.32-4.1.31-2.66,1.84-5.09,1.93-7.77.08-1.96-.81-3.21-.68-5.1-.04-4.27,3.95-7.83,3.33-12.05-.72-3.81,1.25-5.89,2.07-10.16.52-2.24.05-5.9,1.25-7.62,1.18-1.26,2.02.37,2.35,1.8,3.55,19.87,5.13,40.9,7.38,60.65.15,2.35.64,5.46-.75,7.4Z"/>
  <path class="cls-1" d="M82.29,166.92h.19c4.43-.02,13.2-.56,14.34-4.17.53-2.81-3.33-4.56-5.72-5.18-14.42-4.05-30.3-3.48-45.06-.5-1.68.38-4.38,1.48-3.68,3.42.74,2.06,5.35,3.65,8.19,4.85,10.04,4.53,21.19,2.04,31.74,1.58ZM89.34,175.68c-19.73.42-56.5,37.22-21.76,20.36l.15-.06c5.99-2.37,13.74-6.05,19.14-10.29,3.59-2.55,8.8-8.88,2.47-10.01ZM157.63,157.61l.15.02c4.2.41,6.78-.91,12.17-2.52,4.27-1.44,9.17-3.32,13.78-5.29,3.14-1.32,22.76-9.84,14.96-10.63-8.65-1.74-61.27,14.37-41.06,18.41ZM99.02,190.58c-14.3,7.72-26.18,48.54-13.02,36.6,3.27-3.13,6.31-6.7,8.38-10.61l.09-.16c1.29-2.54,3.57-4.66,4.64-7.13,1.26-3.21,2.46-6.35,3.72-10.08,2.02-5.63,2.37-11.73-3.82-8.63ZM159.67,138.99l.16-.1c5.48-3.41,9.9-9,14.65-13.15,4.97-4.99,17.45-18.91,6.27-16.88-35.55,5.45-53.32,53.81-21.08,30.13ZM82.71,139.25c8.05,6.15,26.29,9.03,12.14-5.21l-.1-.1c-3.7-3.68-25.72-16.26-28.65-13-.51,1.53,1.39,3.37,2.37,4.63,4.32,4.93,8.93,9.76,14.24,13.68ZM125.76,197c-1.88-5.08-6.07-6.58-9.56-1.96-6.33,11.63-9.71,41.1-4.75,52.6,2.02,3.99,8.2,2.67,10.55-.4.97-1.27,1.34-2.84,1.69-4.37.61-2.55,1.34-5.62,1.04-8.45v-.2c-.31-2.91.42-5.75.97-8.59.51-5.06,1.55-10.24,1.31-15.39,0-4.51.41-8.91-1.25-13.23ZM180.82,210.36c-2.87-4.74-6.55-9.05-10.79-12.61-1.9-1.61-3.47-3.57-5.2-5.34-2.3-2.06-12.66-9.15-15.26-6.45-2.24,2.9,2.49,10.69,5.05,13.61,3.14,4.48,37.99,29.92,26.31,10.96l-.11-.17ZM210.25,177.65c-1.6-3.55-7.11-3.13-10.38-3.94-9.88-2.03-19.68-4.01-29.62-5.41-15.52-3.06-27.05,1.41.04,9.32,6.39,2.09,40.11,9.69,39.99.14l-.03-.12ZM138.34,117.91c.17-2.72.16-5.22.16-7.86.34-2.76.55-5.52.01-8.48-.33-2.18.17-4.41-.04-6.6-.37-2.84-.96-5.66-1.17-8.54-.29-2.46-1.85-4.41-4.26-4.02-9.53,2.47-8.28,31.94-9.89,43.35,1.09,26.72,14.8,8.47,15.18-7.64v-.21ZM152.35,217.86c-.6-2.09-.97-4.34-2-6.28-1.1-1.99-2.39-3.1-3.2-4.98-1.04-2.6-2.21-5.58-4.22-8.09-3.29-4.67-8.45-4.89-9.17.96-.68,23.21,32.66,59.79,18.64,18.57l-.05-.19ZM113.29,125.71l-.06-.21c-.94-3.26-2.25-6.21-3.31-9.38-1.08-3.51-2.15-5.7-4.42-9.12-2.49-3.99-5.84-9.27-7.86-8.77-1.68.61-1.31,3.53-1.23,5.12.93,9.98,2.51,20.61,8.36,28.88,6.56,8.54,11.01,1.49,8.53-6.51Z"/>
  <path class="cls-1" d="M138.52,179.33c-23.47,21.55-50.74-19.48-21.37-31.61,3.95-1.68,8.91-3.31,12.87-2.81,9.53,1.07,15.18,10.5,15.11,19.62,0,5.33-2.21,10.91-6.44,14.65l-.17.15Z"/>
</svg>