<?xml version="1.0" encoding="UTF-8"?>
<svg id="Layer_1" data-name="Layer 1" xmlns="http://www.w3.org/2000/svg" viewBox="0 0 507.78 100.82">
  <defs>
    <style>
      .cls-1 {
        fill: #fff;
      }
    </style>
  </defs>
  <g>
    <path class="cls-1" d="M2.86,95.37H0L37.57,2.55h3.38l36.66,92.82h-2.86l-12.22-30.55H15.21l-12.35,30.55ZM39.39,5.15h-.26l-22.88,57.07h45.24L39.39,5.15Z"/>
    <path class="cls-1" d="M147.29,51.95h38.61v43.42h-2.6v-23.01h-.26c-2.51,7.89-7.02,14.04-13.52,18.46-6.5,4.42-14.34,6.63-23.53,6.63-7.11,0-13.39-1.28-18.85-3.83-5.46-2.56-10.01-6.02-13.65-10.4-3.64-4.38-6.39-9.51-8.25-15.41-1.86-5.89-2.79-12.17-2.79-18.85s1-13.11,2.99-19.04c1.99-5.94,4.85-11.09,8.58-15.47,3.73-4.38,8.28-7.82,13.65-10.33,5.37-2.51,11.48-3.77,18.33-3.77,5.2,0,9.99.74,14.37,2.21,4.38,1.47,8.23,3.58,11.57,6.3,3.34,2.73,6.07,6,8.19,9.82,2.12,3.81,3.58,8.1,4.35,12.87h-2.6c-.78-4.33-2.19-8.25-4.22-11.77-2.04-3.51-4.59-6.52-7.67-9.03-3.08-2.51-6.63-4.44-10.66-5.79-4.03-1.34-8.47-2.02-13.33-2.02-6.5,0-12.29,1.21-17.35,3.64-5.07,2.43-9.36,5.72-12.87,9.88-3.51,4.16-6.17,9.04-7.99,14.62-1.82,5.59-2.73,11.55-2.73,17.88s.87,12.29,2.6,17.88c1.73,5.59,4.33,10.46,7.8,14.62,3.47,4.16,7.78,7.46,12.94,9.88,5.16,2.43,11.16,3.64,18,3.64,5.11,0,9.92-.89,14.43-2.67,4.51-1.77,8.43-4.25,11.77-7.41,3.34-3.16,5.96-6.93,7.87-11.31,1.91-4.38,2.86-9.12,2.86-14.23v-4.81h-36.01v-2.6Z"/>
    <path class="cls-1" d="M337.09,95.37V2.55h37.96c9.71,0,16.81,1.93,21.32,5.79,4.51,3.86,6.85,9.86,7.02,18,.17,6.24-1.47,11.42-4.94,15.54-3.47,4.12-8.45,6.91-14.95,8.38v.26c3.9.52,7.06,1.45,9.49,2.79,2.43,1.34,4.29,3.1,5.59,5.27,1.3,2.17,2.17,4.72,2.6,7.67.43,2.95.65,6.28.65,10.01,0,1.3.04,2.92.13,4.88.09,1.95.22,3.88.39,5.79.17,1.91.39,3.64.65,5.2.26,1.56.61,2.64,1.04,3.25h-2.86c-.43-.95-.78-2.23-1.04-3.83-.26-1.6-.46-3.32-.58-5.14-.13-1.82-.22-3.66-.26-5.52-.04-1.86-.06-3.53-.06-5,0-3.81-.28-7.21-.84-10.21-.57-2.99-1.71-5.5-3.45-7.54-1.73-2.04-4.21-3.6-7.41-4.68-3.21-1.08-7.5-1.62-12.87-1.62h-34.97v43.55h-2.6ZM374.4,49.22c3.46,0,6.78-.43,9.95-1.3,3.16-.87,5.96-2.25,8.38-4.16,2.42-1.91,4.38-4.31,5.85-7.21,1.47-2.9,2.21-6.39,2.21-10.46-.09-6.59-2.08-11.72-5.98-15.41-3.9-3.68-10.27-5.53-19.11-5.53h-36.01v44.07h34.71Z"/>
    <path class="cls-1" d="M433.03,95.37h-2.86L467.74,2.55h3.38l36.66,92.82h-2.86l-12.22-30.55h-47.32l-12.35,30.55ZM469.56,5.15h-.26l-22.88,57.07h45.24l-22.1-57.07Z"/>
  </g>
  <g>
    <path class="cls-1" d="M262.68,100.82c-27.68,0-50.2-22.52-50.2-50.2S235,.43,262.68.43s50.2,22.52,50.2,50.2-22.52,50.2-50.2,50.2ZM262.68,2.55c-26.51,0-48.07,21.57-48.07,48.07s21.57,48.07,48.07,48.07,48.07-21.57,48.07-48.07S289.19,2.55,262.68,2.55Z"/>
    <circle class="cls-1" cx="291.8" cy="11.59" r="11.59"/>
    <circle class="cls-1" cx="233.55" cy="89.66" r="7.4"/>
  </g>
  <circle class="cls-1" cx="262.68" cy="50.63" r="23.92"/>
</svg>